<svg xmlns="http://www.w3.org/2000/svg" width="400" height="208.738" viewBox="0 0 400 208.738">
  <path id="brand-nike-svgrepo-com" d="M25.712,207.806c-11.729-5.623-21.7-15.84-23.86-24.457-2.537-10.114.77-29.641,7.561-44.614C15.82,124.6,33.866,96.3,45.21,82.587l5.34-6.453L46.243,88.451c-5.99,17.13-5.751,35.464.583,44.864,9.476,14.06,28.27,21.57,45.235,18.07,12.5-2.567,133.732-35.487,138.125-37.494,3.063-1.4-.5-2-12.371-2.1H201.142l-.167-11.294a178.786,178.786,0,0,0-1.613-20.5l-1.453-9.2-7.422,20.5-7.423,20.5H170.585c-6.863,0-12.478-.833-12.478-1.833s6.873-20.127,15.274-42.491S190.564,21.726,192.9,15.513l4.244-11.294H209.9c7.015,0,12.754.333,12.754.667,0,.367-2.413,6.83-5.365,14.357s-5.109,13.947-4.8,14.26c.3.333,5.874-6.113,12.357-14.28l11.788-14.85h39.494c35.265,0,39.353.333,38.179,3.35-.723,1.9-1.9,5.757-2.613,8.6-1.2,4.783-2.337,5.18-14.763,5.18H283.469l-4.3,11.3-4.3,11.294,11.544.633c6.349.367,11.544,1.6,11.544,2.767s-1.38,5.42-3.07,9.464c-2.933,7.023-3.619,7.377-15.479,8L267,65.624l-4.96,12.83c-2.73,7.057-4.96,13.11-4.96,13.447s6.747.6,14.993.6c12.443,0,14.782.567,13.754,3.233-.68,1.767-.267,3.233.937,3.233s27.118-6.777,57.6-15.06c52.265-14.2,66.71-17.117,50.1-10.114-3.973,1.667-71.123,30.657-149.221,64.4S95.984,202.193,87.109,205.413a119.119,119.119,0,0,1-33.348,6.847c-15,.867-18.606.333-28.057-4.21Zm220.38-155.12c8.411-22.364,15.248-41.241,15.193-41.954s-8.267,7.42-18.25,18.067L224.884,48.163l-.013,18.287c-.017,22.514,2.04,37.167,4.355,31.051.867-2.3,8.456-22.454,16.866-44.814ZM59.246,100.438C61.63,94.171,70.668,70.164,79.332,47.09L95.083,5.136l14.05-.633,14.05-.633-.757,9.234c-1.817,22.157-2.583,36.131-1.983,36.131.357,0,4.378-10.16,8.94-22.577l8.293-22.577,12.371-.023c6.8,0,12.371.8,12.371,1.833,0,1-6.873,20.13-15.274,42.491s-17.184,45.741-19.518,51.954l-4.244,11.3H95.259l1.28-22.054c.7-12.13.8-21.084.233-19.9-.583,1.167-4.294,10.864-8.242,21.514l-7.179,19.364-13.21.633-13.21.633,4.333-11.4Zm68.748,9.364c0-1,6.873-20.13,15.274-42.494s17.184-45.741,19.518-51.951l4.244-11.3h12.934c7.113,0,12.611.833,12.216,1.867S182.748,31.146,172.1,59.69l-19.363,51.894-12.371.02c-6.8.023-12.371-.8-12.371-1.8Z" transform="translate(-1 -3.869)"/>
</svg>
