<svg fill="#034C9D"  xmlns="http://www.w3.org/2000/svg" width="553.921" height="81.105" viewBox="0 0 553.921 81.105">
  <path id="Path_2" data-name="Path 2" d="M320.008,122.309a71.612,71.612,0,0,0-8.722-4.622s-10.315-4.781-12.362-7.055c0,0-4.02-3.789-1.666-8.189,0,0,.985-2.88,5.234-2.88,0,0,5.531.3,5.531,4.85v6.412h19.822l-.035-9.444s1.524-15.466-23.347-16.147c0,0-19.562-1.286-25.173,9.25,0,0-2.2,2.351-2.2,10.536v5.915s-.225,6.824,3.26,11.221a25.767,25.767,0,0,0,6.824,6.063s9.855,5.306,15.77,8.345c0,0,5.97,3.408,5.185,8.832,0,0-.487,5.569-6.253,5.341,0,0-5.272-.235-5.272-5.7v-6.409H275.48v9.309s-.591,17.8,26.549,17.8c0,0,25.933.525,27.143-18.269v-7.581s.916-11.518-9.164-17.585ZM218.529,87.45l-6.637,41.593H210.34L204,87.823H170.89l-1.659,75.321h19.6l.235-56.751h1.542L201,163.134h20.624l10.263-56.72h1.365l.474,56.73h19.707L251.313,87.45H218.529Zm-116.7.315L88.79,163.058h21.1l7.726-58.379h1.735l7.723,58.379h21.1L135.139,87.764Zm442.828,33.507v11.107h5.413V144.3c0,5.828-4.981,5.935-4.981,5.935-6.056,0-5.828-5.538-5.828-5.538v-41.24c0-4.248,5.375-4.477,5.375-4.477,5.158,0,5.192,5.068,5.192,5.068v6.271H569.7c.65-12.241-1.791-15.2-1.791-15.2-4.929-11.069-23.576-10.464-23.576-10.464-28.654,0-25.473,21.985-25.473,21.985v39.875c.615,20.62,28.851,18.525,29.328,18.508,12.559-1.39,16.351-5.382,16.351-5.382a12.212,12.212,0,0,0,4.39-6.184c1-2.091,1.248-8.756,1.248-8.756V121.272H544.661ZM478.8,133.526h-.864L457.77,87.471H433.644v75.681h19.635L452.1,117.1h.878l20.89,46.049h23.392V87.464H477.38l1.417,46.062Zm-93.082,10.768s.283,6.212-5.476,6.212c0,0-6.056.325-6.056-6.056l-.062-56.934H352.585V144s-2.209,21.377,27.959,21.377c0,0,26.217.311,26.217-20.4V87.519H385.715v56.775ZM60.776,122.309a70.84,70.84,0,0,0-8.718-4.618s-10.308-4.777-12.355-7.055c0,0-4.02-3.8-1.663-8.186,0,0,.982-2.88,5.227-2.88,0,0,5.534.3,5.534,4.846v6.412H68.63l-.038-9.448s1.514-15.466-23.347-16.143a44.6,44.6,0,0,0-4.622.017s-15.061.809-20.447,9.071c-.031.062-.076.107-.107.162,0,0-2.2,2.347-2.2,10.536v5.915s-.228,6.824,3.26,11.221a25.767,25.767,0,0,0,6.824,6.063s9.852,5.306,15.767,8.345c0,0,5.977,3.4,5.185,8.832,0,0-.487,5.569-6.25,5.341,0,0-5.272-.235-5.272-5.7v-6.412H16.259v9.316s-.591,17.8,26.549,17.8c0,0,25.926.525,27.147-18.269v-7.574c0-.007.906-11.532-9.178-17.6Z" transform="translate(-16.258 -84.647)" fill-rule="evenodd"/>
</svg>
